<svg width="229" height="218" viewBox="0 0 229 218" fill="none" xmlns="http://www.w3.org/2000/svg">
<path d="M111.692 42L162 45.0526V100H97L111.692 42Z" fill="#33354A"/>
<path d="M64.1461 0H110.861L48.1096 218H0L64.1461 0Z" fill="#C4C4C4"/>
<circle cx="161" cy="50" r="50" fill="#E7DA21"/>
<mask id="mask0_45_1140" style="mask-type:alpha" maskUnits="userSpaceOnUse" x="111" y="0" width="100" height="100">
<circle cx="161" cy="50" r="50" fill="#E7DA21"/>
</mask>
<g mask="url(#mask0_45_1140)">
<path d="M116.518 19.9216C124.685 22.1158 132.219 26.8499 138.357 33.6446C144.496 40.4392 149.022 49.0532 151.476 58.6143C153.93 68.1753 154.226 78.344 152.333 88.0906C150.44 97.8372 146.426 106.816 140.697 114.117L135.674 108.49C140.572 102.247 144.004 94.5707 145.622 86.2374C147.241 77.904 146.988 69.2098 144.89 61.0351C142.791 52.8604 138.922 45.4954 133.673 39.686C128.424 33.8766 121.983 29.8289 115.001 27.9529L116.518 19.9216Z" fill="#C4C4C4"/>
<path d="M191.539 -5.83058C186.504 1.48405 183.355 10.1518 182.421 19.2635C181.487 28.3752 182.803 37.595 186.231 45.9558C189.658 54.3167 195.071 61.5104 201.902 66.7825C208.733 72.0547 216.729 75.2108 225.053 75.92L225.575 68.5336C218.458 67.9272 211.621 65.2287 205.781 60.7211C199.94 56.2134 195.312 50.0627 192.382 42.9142C189.451 35.7657 188.326 27.8827 189.125 20.0923C189.923 12.3018 192.616 4.89086 196.92 -1.36315L191.539 -5.83058Z" fill="#C4C4C4"/>
</g>
</svg>

