<svg width="300" height="300" viewBox="0 0 300 300" fill="none" xmlns="http://www.w3.org/2000/svg">
<path d="M84.0342 0H145.233L63.0256 300H0L84.0342 0Z" fill="url(#paint0_linear_142_1725)"/>
<ellipse cx="210.917" cy="68.8073" rx="65.5022" ry="68.8073" fill="url(#paint1_linear_142_1725)"/>
<mask id="mask0_142_1725" style="mask-type:alpha" maskUnits="userSpaceOnUse" x="145" y="0" width="132" height="138">
<ellipse cx="210.917" cy="68.8073" rx="65.5022" ry="68.8073" fill="#E7DA21"/>
</mask>
<g mask="url(#mask0_142_1725)">
<path d="M152.644 27.415C163.342 30.4345 173.212 36.9493 181.254 46.2998C189.297 55.6503 195.225 67.5043 198.441 80.6618C201.656 93.8192 202.043 107.813 199.563 121.226C197.084 134.638 191.825 146.994 184.32 157.042L177.739 149.298C184.155 140.707 188.652 130.143 190.772 118.675C192.892 107.207 192.561 95.2428 189.812 83.9932C187.063 72.7436 181.994 62.6083 175.118 54.6137C168.242 46.6191 159.803 41.0489 150.656 38.4672L152.644 27.415Z" fill="#C4C4C4"/>
<path d="M250.924 -8.02384C244.329 2.04217 240.203 13.9703 238.98 26.5093C237.756 39.0483 239.48 51.7361 243.97 63.2418C248.46 74.7476 255.552 84.6473 264.5 91.9025C273.449 99.1577 283.925 103.501 294.829 104.477L295.513 94.3121C286.19 93.4777 277.233 89.7642 269.582 83.561C261.931 77.3578 255.867 68.8936 252.028 59.0561C248.189 49.2187 246.715 38.3706 247.761 27.6498C248.807 16.9289 252.335 6.73043 257.974 -1.87601L250.924 -8.02384Z" fill="#C4C4C4"/>
</g>
<defs>
<linearGradient id="paint0_linear_142_1725" x1="72.6165" y1="0" x2="72.6165" y2="300" gradientUnits="userSpaceOnUse">
<stop stop-color="#6382C0"/>
<stop offset="1" stop-color="#455981"/>
</linearGradient>
<linearGradient id="paint1_linear_142_1725" x1="210.917" y1="0" x2="210.917" y2="137.615" gradientUnits="userSpaceOnUse">
<stop stop-color="#6382C0"/>
<stop offset="1" stop-color="#455981"/>
</linearGradient>
</defs>
</svg>
