<svg width="25" height="25" viewBox="0 0 60 60" fill="none" xmlns="http://www.w3.org/2000/svg">
<path d="M60 45C60 48.6817 57.015 51.6667 53.3333 51.6667H6.66667C2.985 51.6667 0 48.6817 0 45V15C0 11.3183 2.985 8.33333 6.66667 8.33333H53.3333C57.015 8.33333 60 11.3183 60 15V45Z" fill="#C60A1D"/>
<path d="M0 20H60V40H0V20Z" fill="#FFC400"/>
<path d="M15 28.3333V33.3333C15 36.095 17.2383 38.3333 20 38.3333C22.7617 38.3333 25 36.095 25 33.3333V28.3333H15Z" fill="#EA596E"/>
<path d="M20 26.6667H25V31.6667H20V26.6667Z" fill="#F4A2B2"/>
<path d="M15 26.6667H20V31.6667H15V26.6667Z" fill="#DD2E44"/>
<path d="M20 26.6667C22.7614 26.6667 25 25.5474 25 24.1667C25 22.786 22.7614 21.6667 20 21.6667C17.2386 21.6667 15 22.786 15 24.1667C15 25.5474 17.2386 26.6667 20 26.6667Z" fill="#EA596E"/>
<path d="M20 24.1667C22.7614 24.1667 25 23.607 25 22.9167C25 22.2263 22.7614 21.6667 20 21.6667C17.2386 21.6667 15 22.2263 15 22.9167C15 23.607 17.2386 24.1667 20 24.1667Z" fill="#FFAC33"/>
<path d="M11.6666 26.6667H13.3333V38.3333H11.6666V26.6667ZM26.6666 26.6667H28.3333V38.3333H26.6666V26.6667Z" fill="#99AAB5"/>
<path d="M10 36.6667H15V38.3333H10V36.6667ZM25 36.6667H30V38.3333H25V36.6667ZM11.6667 25H13.3333V26.6667H11.6667V25ZM26.6667 25H28.3333V26.6667H26.6667V25Z" fill="#66757F"/>
</svg>
