<svg width="250" height="250" viewBox="0 0 250 250" fill="none" xmlns="http://www.w3.org/2000/svg">
<path d="M0 20C0 8.9543 8.9543 0 20 0H230C241.046 0 250 8.9543 250 20V230C250 241.046 241.046 250 230 250H20C8.9543 250 0 241.046 0 230V20Z" fill="#455981"/>
<path d="M122.547 63.5321L166.485 66.3327V116.743H109.716L122.547 63.5321Z" fill="#33354A"/>
<path d="M81.0228 25H121.822L67.0171 225H25L81.0228 25Z" fill="#C4C4C4"/>
<ellipse cx="165.611" cy="70.8716" rx="43.6681" ry="45.8716" fill="#E7DA21"/>
<mask id="mask0_127_1798" style="mask-type:alpha" maskUnits="userSpaceOnUse" x="121" y="25" width="89" height="92">
<ellipse cx="165.611" cy="70.8716" rx="43.6681" ry="45.8716" fill="#E7DA21"/>
</mask>
<g mask="url(#mask0_127_1798)">
<path d="M126.763 43.2767C133.895 45.2897 140.475 49.6329 145.836 55.8665C151.198 62.1002 155.15 70.0029 157.294 78.7745C159.437 87.5461 159.695 96.8752 158.042 105.817C156.389 114.759 152.883 122.996 147.88 129.694L143.492 124.532C147.77 118.805 150.768 111.762 152.181 104.117C153.595 96.4715 153.374 88.4952 151.541 80.9955C149.708 73.4957 146.329 66.7389 141.745 61.4091C137.161 56.0794 131.535 52.3659 125.437 50.6448L126.763 43.2767Z" fill="#C4C4C4"/>
<path d="M192.283 19.6507C187.886 26.3614 185.135 34.3135 184.32 42.6728C183.504 51.0321 184.653 59.4907 187.647 67.1612C190.64 74.8317 195.368 81.4315 201.334 86.2683C207.299 91.1051 214.283 94.0006 221.553 94.6512L222.009 87.8747C215.793 87.3184 209.822 84.8427 204.721 80.7073C199.62 76.5718 195.578 70.929 193.019 64.3707C190.459 57.8124 189.477 50.5804 190.174 43.4332C190.872 36.2859 193.223 29.4869 196.983 23.7493L192.283 19.6507Z" fill="#C4C4C4"/>
</g>
</svg>
